<svg xmlns="http://www.w3.org/2000/svg" xmlns:xlink="http://www.w3.org/1999/xlink" width="266" zoomAndPan="magnify" viewBox="0 0 199.5 54.75" height="73" preserveAspectRatio="xMidYMid meet" version="1.0"><defs><g/><clipPath id="be053118dd"><path d="M 5.65625 16.746094 L 40 16.746094 L 40 41.386719 L 5.65625 41.386719 Z M 5.65625 16.746094 " clip-rule="nonzero"/></clipPath><clipPath id="7a90472025"><path d="M 21 16.746094 L 55.675781 16.746094 L 55.675781 41.386719 L 21 41.386719 Z M 21 16.746094 " clip-rule="nonzero"/></clipPath></defs><g fill="#ffffff" fill-opacity="1"><g transform="translate(65.901401, 38.333998)"><g><path d="M 8.546875 -25.75 L 8.546875 0 L 2.28125 0 L 2.28125 -25.75 Z M 8.546875 -25.75 "/></g></g></g><g fill="#ffffff" fill-opacity="1"><g transform="translate(76.719837, 38.333998)"><g><path d="M 1.203125 -12.90625 C 1.203125 -15.445312 1.753906 -17.710938 2.859375 -19.703125 C 3.960938 -21.703125 5.5 -23.253906 7.46875 -24.359375 C 9.4375 -25.472656 11.664062 -26.03125 14.15625 -26.03125 C 17.207031 -26.03125 19.820312 -25.222656 22 -23.609375 C 24.175781 -22.003906 25.628906 -19.804688 26.359375 -17.015625 L 19.46875 -17.015625 C 18.957031 -18.085938 18.226562 -18.90625 17.28125 -19.46875 C 16.34375 -20.03125 15.273438 -20.3125 14.078125 -20.3125 C 12.148438 -20.3125 10.585938 -19.640625 9.390625 -18.296875 C 8.191406 -16.953125 7.59375 -15.15625 7.59375 -12.90625 C 7.59375 -10.65625 8.191406 -8.859375 9.390625 -7.515625 C 10.585938 -6.171875 12.148438 -5.5 14.078125 -5.5 C 15.273438 -5.5 16.34375 -5.78125 17.28125 -6.34375 C 18.226562 -6.90625 18.957031 -7.722656 19.46875 -8.796875 L 26.359375 -8.796875 C 25.628906 -6.015625 24.175781 -3.820312 22 -2.21875 C 19.820312 -0.613281 17.207031 0.1875 14.15625 0.1875 C 11.664062 0.1875 9.4375 -0.367188 7.46875 -1.484375 C 5.5 -2.597656 3.960938 -4.144531 2.859375 -6.125 C 1.753906 -8.101562 1.203125 -10.363281 1.203125 -12.90625 Z M 1.203125 -12.90625 "/></g></g></g><g fill="#5ce1e6" fill-opacity="1"><g transform="translate(104.674844, 38.333998)"><g><path d="M 18.296875 -4.546875 L 8.6875 -4.546875 L 7.15625 0 L 0.59375 0 L 9.90625 -25.75 L 17.15625 -25.75 L 26.484375 0 L 19.84375 0 Z M 16.6875 -9.390625 L 13.5 -18.8125 L 10.34375 -9.390625 Z M 16.6875 -9.390625 "/></g></g></g><g fill="#5ce1e6" fill-opacity="1"><g transform="translate(131.702586, 38.333998)"><g><path d="M 31.421875 -25.75 L 31.421875 0 L 25.15625 0 L 25.15625 -15.4375 L 19.40625 0 L 14.34375 0 L 8.546875 -15.46875 L 8.546875 0 L 2.28125 0 L 2.28125 -25.75 L 9.6875 -25.75 L 16.90625 -7.921875 L 24.0625 -25.75 Z M 31.421875 -25.75 "/></g></g></g><g fill="#5ce1e6" fill-opacity="1"><g transform="translate(165.36812, 38.333998)"><g><path d="M 1.203125 -12.90625 C 1.203125 -15.445312 1.753906 -17.710938 2.859375 -19.703125 C 3.960938 -21.703125 5.5 -23.253906 7.46875 -24.359375 C 9.4375 -25.472656 11.664062 -26.03125 14.15625 -26.03125 C 17.207031 -26.03125 19.820312 -25.222656 22 -23.609375 C 24.175781 -22.003906 25.628906 -19.804688 26.359375 -17.015625 L 19.46875 -17.015625 C 18.957031 -18.085938 18.226562 -18.90625 17.28125 -19.46875 C 16.34375 -20.03125 15.273438 -20.3125 14.078125 -20.3125 C 12.148438 -20.3125 10.585938 -19.640625 9.390625 -18.296875 C 8.191406 -16.953125 7.59375 -15.15625 7.59375 -12.90625 C 7.59375 -10.65625 8.191406 -8.859375 9.390625 -7.515625 C 10.585938 -6.171875 12.148438 -5.5 14.078125 -5.5 C 15.273438 -5.5 16.34375 -5.78125 17.28125 -6.34375 C 18.226562 -6.90625 18.957031 -7.722656 19.46875 -8.796875 L 26.359375 -8.796875 C 25.628906 -6.015625 24.175781 -3.820312 22 -2.21875 C 19.820312 -0.613281 17.207031 0.1875 14.15625 0.1875 C 11.664062 0.1875 9.4375 -0.367188 7.46875 -1.484375 C 5.5 -2.597656 3.960938 -4.144531 2.859375 -6.125 C 1.753906 -8.101562 1.203125 -10.363281 1.203125 -12.90625 Z M 1.203125 -12.90625 "/></g></g></g><g clip-path="url(#be053118dd)"><path fill="#ffffff" d="M 27.386719 22.957031 L 18.074219 22.957031 C 14.644531 22.957031 11.863281 25.738281 11.863281 29.164062 C 11.863281 32.59375 14.644531 35.375 18.074219 35.375 L 18.074219 41.582031 C 11.214844 41.582031 5.65625 36.023438 5.65625 29.164062 C 5.65625 22.308594 11.214844 16.746094 18.074219 16.746094 L 27.386719 16.746094 C 34.246094 16.746094 39.804688 22.308594 39.804688 29.164062 L 39.804688 32.269531 L 33.59375 32.269531 L 33.59375 29.164062 C 33.59375 25.738281 30.816406 22.957031 27.386719 22.957031 Z M 27.386719 22.957031 " fill-opacity="1" fill-rule="evenodd"/></g><g clip-path="url(#7a90472025)"><path fill="#ffffff" d="M 33.59375 35.375 L 42.910156 35.375 C 46.335938 35.375 49.117188 32.59375 49.117188 29.164062 C 49.117188 25.738281 46.335938 22.957031 42.910156 22.957031 L 42.910156 16.746094 C 49.765625 16.746094 55.328125 22.308594 55.328125 29.164062 C 55.328125 36.023438 49.765625 41.582031 42.910156 41.582031 L 33.59375 41.582031 C 26.738281 41.582031 21.175781 36.023438 21.175781 29.164062 L 21.175781 26.0625 L 27.386719 26.0625 L 27.386719 29.164062 C 27.386719 32.59375 30.164062 35.375 33.59375 35.375 Z M 33.59375 35.375 " fill-opacity="1" fill-rule="evenodd"/></g></svg>